<svg xmlns="http://www.w3.org/2000/svg" viewBox="0 0 100 100">
  <defs>
    <linearGradient id="grad" x1="0%" y1="0%" x2="100%" y2="100%">
      <stop offset="0%" style="stop-color:#3b82f6;stop-opacity:1" />
      <stop offset="100%" style="stop-color:#8b5cf6;stop-opacity:1" />
    </linearGradient>
  </defs>
  
  <!-- Background circle -->
  <circle cx="50" cy="50" r="45" fill="url(#grad)"/>
  
  <!-- Letter B -->
  <path d="M 30 25 L 30 75 L 52 75 C 60 75 67 70 67 62 C 67 57 64 53 60 52 C 63 51 65 47 65 43 C 65 35 60 25 52 25 Z M 38 33 L 50 33 C 54 33 57 36 57 40 C 57 44 54 47 50 47 L 38 47 Z M 38 53 L 52 53 C 56 53 59 56 59 60 C 59 64 56 67 52 67 L 38 67 Z" fill="white"/>
</svg>
